<?xml version="1.0" standalone="no"?>
<!DOCTYPE svg PUBLIC "-//W3C//DTD SVG 20010904//EN"
 "http://www.w3.org/TR/2001/REC-SVG-20010904/DTD/svg10.dtd">
<svg version="1.0" xmlns="http://www.w3.org/2000/svg"
 viewBox="290 200 500 500"
 preserveAspectRatio="xMidYMid meet">

<g transform="translate(0.000000,1254.000000) scale(0.100000,-0.100000)"
fill="#000000" stroke="none">
<path d="M5740 9779 c-160 -33 -217 -276 -89 -383 69 -59 14 -56 1091 -56 613
0 1006 4 1028 10 19 5 52 24 74 42 114 94 98 289 -31 365 l-47 27 -998 1
c-548 0 -1011 -3 -1028 -6z"/>
<path d="M5262 8889 c-75 -37 -113 -104 -113 -200 -1 -96 60 -181 150 -208 48
-14 800 -15 851 -1 48 13 106 63 131 113 17 32 20 54 17 113 -3 61 -8 79 -34
116 -16 23 -48 53 -69 65 -40 22 -43 23 -465 23 -413 0 -426 -1 -468 -21z"/>
<path d="M4870 8024 c-171 -74 -168 -327 5 -405 38 -18 95 -19 1106 -19 l1065
0 55 28 c70 35 108 89 116 163 7 72 -10 132 -53 179 -68 75 22 70 -1181 70
-940 -1 -1082 -3 -1113 -16z"/>
<path d="M5283 7154 c-90 -39 -146 -152 -124 -249 14 -64 64 -125 124 -154 42
-20 58 -21 441 -21 270 0 411 4 437 11 186 56 202 328 24 410 -37 17 -71 19
-455 18 -331 -1 -421 -3 -447 -15z"/>
<path d="M5730 6284 c-96 -42 -149 -158 -120 -264 16 -58 89 -133 145 -149 28
-8 323 -11 980 -11 l940 0 50 24 c85 39 125 104 125 204 0 80 -47 154 -122
193 -36 18 -72 19 -1000 19 -838 -1 -968 -3 -998 -16z"/>
</g></svg>
